Coordinates
nRows=8
nColumns=38

# SIMM Motion File Header:
name Coordinates
datacolumns 38
datarows 8
otherdata 1
range 2.04300000000000010000 2.05000000000000030000

Units are S.I. units (second, meters, Newtons, ...)
Angles are in degrees.

endheader
time	pelvis_tilt	pelvis_list	pelvis_rotation	pelvis_tx	pelvis_ty	pelvis_tz	hip_flexion_r	hip_adduction_r	hip_rotation_r	knee_angle_r	ankle_angle_r	subtalar_angle_r	mtp_angle_r	hip_flexion_l	hip_adduction_l	hip_rotation_l	knee_angle_l	ankle_angle_l	subtalar_angle_l	mtp_angle_l	lumbar_extension	lumbar_bending	lumbar_rotation	arm_flex_r	arm_add_r	arm_rot_r	elbow_flex_r	pro_sup_r	wrist_flex_r	wrist_dev_r	arm_flex_l	arm_add_l	arm_rot_l	elbow_flex_l	pro_sup_l	wrist_flex_l	wrist_dev_l
      2.04300000000000010000	     -3.22828185243188460000	     -2.19305527484358360000	     -3.11888893790515900000	      1.23123986064094830000	      1.00584275484416370000	     -0.34006404851189881000	     25.74440508688383400000	      7.74242446068481450000	      1.93361336974123410000	     -3.46917432971538190000	     10.77980270399360000000	      0.00000000000000000000	      0.00000000000000000000	    -24.45464887326508200000	      9.99879536597502930000	      9.09078062296403470000	    -42.03301221257844800000	    -16.48481157610856900000	      0.00000000000000000000	      0.00000000000000000000	    -12.49159095982449200000	      7.53236779079220220000	     -9.03593307380753430000	    -54.14587136287899900000	    -13.40952361866172500000	    -15.11176445692622900000	    134.45115501301407000000	     93.43166337144056400000	      0.00000000000000000000	      0.00000000000000000000	    -12.81352248790459700000	    -21.24036466435815400000	     10.49216604333501800000	    130.29621756981504000000	     95.95548893493644000000	      0.00000000000000000000	      0.00000000000000000000
      2.04400000000000000000	     -3.17021593326613750000	     -2.19805031505307060000	     -3.11898719678649570000	      1.23129451879282700000	      1.00545639745918900000	     -0.34000184127235339000	     25.62386405547085000000	      7.76162953620925040000	      1.93950870134932220000	     -3.53819565405048180000	     10.78508075209421300000	      0.00000000000000000157	     -0.00000000000000000246	    -24.23586302309838200000	      9.93702071147261990000	      8.63583449329322410000	    -42.84783599145487200000	    -16.33195183972153300000	     -0.00000000000000000140	      0.00000000000000000094	    -12.55682012813651800000	      7.52349258017021330000	     -8.94972667438095830000	    -53.99351723897978400000	    -13.44731031964914400000	    -15.09701345756619000000	    134.44651662419329000000	     93.41781245134949100000	      0.00000000000000000025	     -0.00000000000000000018	    -12.95436437323643900000	    -21.20494044941919800000	     10.45088022598582900000	    130.17785482560700000000	     96.02613697648068600000	      0.00000000000000000019	     -0.00000000000000000057
      2.04499999999999990000	     -3.11259345915724730000	     -2.20593267910737590000	     -3.11814025373695980000	      1.23134694765837360000	      1.00506037674905670000	     -0.33993669687673744000	     25.50722473041486500000	      7.78359905137141970000	      1.94105898397877970000	     -3.62376471151415200000	     10.78980293433850900000	      0.00000000000000000246	     -0.00000000000000000636	    -24.01537584360215000000	      9.86693175347937590000	      8.18255333504429850000	    -43.66343812184209100000	    -16.17719506222124800000	     -0.00000000000000000587	      0.00000000000000000151	    -12.62147706366515500000	      7.51739208404016600000	     -8.86324066513846280000	    -53.83896949559721200000	    -13.48678070009706300000	    -15.08171451558556500000	    134.44053958709685000000	     93.40355608780620900000	      0.00000000000000000083	     -0.00000000000000000058	    -13.09577137957065000000	    -21.16816924441294400000	     10.40758937633734700000	    130.05743591922055000000	     96.09350137851312500000	      0.00000000000000000030	     -0.00000000000000000109
      2.04600000000000030000	     -3.05539543691508040000	     -2.21666128898300880000	     -3.11636037902232710000	      1.23139724894982240000	      1.00465471291209970000	     -0.33986868673854781000	     25.39443632980965000000	      7.80828045843592560000	      1.93816585207512170000	     -3.72564216679309860000	     10.79280099010098800000	      0.00000000000000000214	     -0.00000000000000001018	    -23.79345967171266500000	      9.78866282001255610000	      7.73146958007853870000	    -44.47935410207735200000	    -16.02055726091604300000	     -0.00000000000000001213	     -0.00000000000000000012	    -12.68557699639165300000	      7.51403259045684990000	     -8.77649107615564010000	    -53.68221868167394500000	    -13.52797363280620900000	    -15.06586293912344800000	    134.43321683579907000000	     93.38893124945413100000	      0.00000000000000000163	     -0.00000000000000000119	    -13.23776014546331900000	    -21.13004111301472700000	     10.36226175237827200000	    129.93499311124108000000	     96.15740703141263200000	      0.00000000000000000027	      0.00000000000000000064
      2.04700000000000020000	     -2.99856598944420850000	     -2.23016900494791460000	     -3.11363944925006960000	      1.23144555926540630000	      1.00423946654691650000	     -0.33979793575837264000	     25.28539464546286900000	      7.83558202194259050000	      1.93074717897903800000	     -3.84352378967008420000	     10.79356759132886400000	      0.00000000000000000079	     -0.00000000000000001303	    -23.57045693003382800000	      9.70239366583026270000	      7.28319838434724610000	    -45.29504255198769200000	    -15.86202980328118900000	     -0.00000000000000001922	     -0.00000000000000000188	    -12.74917055773605100000	      7.51335585590787770000	     -8.68952354419088730000	    -53.52325061092486200000	    -13.57092792994563300000	    -15.04944939824471100000	    134.42454539809131000000	     93.37398761679128300000	      0.00000000000000000216	     -0.00000000000000000207	    -13.38034847470833100000	    -21.09055182886945400000	     10.31485918432324100000	    129.81056918390499000000	     96.21765192242483500000	      0.00000000000000000025	      0.00000000000000000303
      2.04800000000000000000	     -2.94203315074382310000	     -2.24638355719033060000	     -3.10997061992603110000	      1.23149200880141720000	      1.00381472850641650000	     -0.33972457686768737000	     25.17997887426580300000	      7.86540519759163730000	      1.91873098716479240000	     -3.97709361048253870000	     10.79165408549609500000	     -0.00000000000000000362	     -0.00000000000000001336	    -23.34671652523789100000	      9.60832333199472720000	      6.83833001892248580000	    -46.10997462478266600000	    -15.70159585220445700000	     -0.00000000000000002294	     -0.00000000000000000523	    -12.81232781953335300000	      7.51529804338571420000	     -8.60238129059753830000	    -53.36204817050546000000	    -13.61567981139539500000	    -15.03246584539185300000	    134.41452299375342000000	     93.35877515172948900000	      0.00000000000000000241	     -0.00000000000000000256	    -13.52354866072412400000	    -21.04969706854055300000	     10.26534615296732500000	    129.68420354667802000000	     96.27405004758799100000	      0.00000000000000000007	      0.00000000000000000626
      2.04899999999999990000	     -2.88571808980234180000	     -2.26522787239830190000	     -3.10534956065684400000	      1.23153671619015890000	      1.00338060589678470000	     -0.33964874836709086000	     25.07806414588554100000	      7.89764560470325970000	      1.90205408169490960000	     -4.12602877122927400000	     10.78663159886398900000	     -0.00000000000000001077	     -0.00000000000000001510	    -23.12258134175165100000	      9.50666865526575040000	      6.39742778926955150000	    -46.92363991523682600000	    -15.53922856790852500000	     -0.00000000000000002450	     -0.00000000000000000916	    -12.87512827435172400000	      7.51979037638325210000	     -8.51510400068778490000	    -53.19859260930716300000	    -13.66226274077963700000	    -15.01490588755080900000	    134.40314727951883000000	     93.34334380126640000000	      0.00000000000000000293	     -0.00000000000000000173	    -13.66736837978685600000	    -21.00747166140968100000	     10.21369036293718200000	    129.55593075753919000000	     96.32643391587073700000	     -0.00000000000000000044	      0.00000000000000000927
      2.05000000000000030000	     -2.82954480826658190000	     -2.28661907642518390000	     -3.09977516376587390000	      1.23157978401245340000	      1.00293720582225430000	     -0.33957059343979434000	     24.97953439431468000000	      7.93219276137090730000	      1.88066337271812860000	     -4.29000502998168720000	     10.77809950233574200000	     -0.00000000000000001926	     -0.00000000000000001644	    -22.89837535986859200000	      9.39766464442512910000	      5.96102672848511710000	    -47.73555227377908500000	    -15.37488816373988400000	     -0.00000000000000002510	     -0.00000000000000001587	    -12.93765010933150200000	      7.52675861094509460000	     -8.42772788432122690000	    -53.03286514562573500000	    -13.71070691905016000000	    -14.99676492247389300000	    134.39041509491545000000	     93.32774347432446400000	      0.00000000000000000344	     -0.00000000000000000042	    -13.81181149266426500000	    -20.96386922622359000000	     10.15986310279383000000	    129.42577927952183000000	     96.37465657423773300000	     -0.00000000000000000121	      0.00000000000000001174
